<?xml version="1.0" encoding="utf-8"?>
<svg viewBox="0 63.628 497.644 358.604" xmlns="http://www.w3.org/2000/svg">
  <path d="M 32.916 80.221 L 233.431 80.221 C 239.691 80.221 244.769 85.298 244.769 91.559 L 244.769 396.23 C 244.769 402.491 239.691 407.568 233.431 407.568 L 32.916 407.568 C 26.655 407.568 21.578 402.491 21.578 396.23 L 21.578 91.559 C 21.578 85.298 26.655 80.221 32.916 80.221 Z M 39.433 359.955 L 228.403 359.955 L 228.403 98.076 L 39.433 98.076 Z M 131.687 373.195 C 125.85 373.195 121.12 377.926 121.12 383.763 C 121.12 389.599 125.85 394.33 131.687 394.33 C 137.524 394.33 142.254 389.599 142.254 383.763 C 142.254 377.926 137.524 373.195 131.687 373.195 Z" style="fill: rgb(255, 255, 255); fill-opacity: 0.5;"/>
  <path d="M 217.533 131.45 L 418.048 131.45 C 424.308 131.45 429.386 136.527 429.386 142.788 L 429.386 447.459 C 429.386 453.72 424.308 458.797 418.048 458.797 L 217.533 458.797 C 211.272 458.797 206.195 453.72 206.195 447.459 L 206.195 142.788 C 206.195 136.527 211.272 131.45 217.533 131.45 Z M 224.05 411.184 L 413.02 411.184 L 413.02 149.305 L 224.05 149.305 Z M 316.304 424.424 C 310.467 424.424 305.737 429.155 305.737 434.992 C 305.737 440.828 310.467 445.559 316.304 445.559 C 322.141 445.559 326.871 440.828 326.871 434.992 C 326.871 429.155 322.141 424.424 316.304 424.424 Z" style="stroke: rgb(0, 0, 0); stroke-width: 3px; fill: rgb(255, 255, 255);" transform="matrix(0, 1, -1, 0, 612.913986, -22.667007)"/>
  <path d="M 271.488 103.367 C 295.353 96.06 359.151 62.174 382.715 124.871 L 354.056 135.239 L 421.76 162.451 L 445.395 97.01 L 419.657 108.403 C 366.467 21.992 271.488 103.367 271.488 103.367 Z" style="fill: rgb(255, 255, 255);" transform="matrix(0.998945, 0.045917, -0.045917, 0.998945, 5.683741, -16.336688)"/>
</svg>